<svg width="37" height="39" viewBox="0 0 37 39" fill="none" xmlns="http://www.w3.org/2000/svg">
<path d="M18.5537 7.0395V3.4905L19.1757 4.485C20.1864 5.967 21.2166 7.4295 22.2468 8.9115L22.6356 9.4965C22.7482 9.65027 22.9109 9.75975 23.0954 9.80603C23.2799 9.85232 23.4748 9.8325 23.6463 9.75L27.9809 8.229L32.782 6.591C33.2288 6.39072 33.7117 6.28453 34.201 6.279C34.6056 6.27899 35.0046 6.37426 35.3658 6.55715C35.7271 6.74004 36.0405 7.00544 36.2808 7.332C36.6937 7.84586 36.92 8.48546 36.9222 9.1455C36.9248 9.92449 36.649 10.6786 36.1447 11.271C35.6199 11.934 35.1145 12.636 34.6092 13.221C34.1038 13.806 33.4235 14.82 32.782 15.6L30.4689 18.7785C30.3742 18.8759 30.2955 18.9878 30.2357 19.11C30.1507 19.2765 30.1236 19.4668 30.1588 19.6506C30.1941 19.8343 30.2895 20.001 30.4301 20.124L31.4214 21.45L33.1125 23.634C33.5984 24.2385 34.0649 24.8625 34.5314 25.467L36.0476 27.417C36.4102 27.8365 36.6934 28.3189 36.8834 28.8405C36.8647 29.0679 36.9049 29.2962 37 29.5035V29.6985C36.9795 30.2105 36.8254 30.7081 36.5529 31.1415C36.259 31.6664 35.8004 32.079 35.2485 32.3153C34.6966 32.5516 34.0823 32.5982 33.5012 32.448C32.6654 32.2335 31.8879 31.902 31.091 31.629L26.0177 29.8545L24.074 29.1525C23.8773 29.0511 23.653 29.0172 23.4353 29.0559C23.2177 29.0947 23.0187 29.204 22.8688 29.367C22.6529 29.6124 22.4639 29.8805 22.3051 30.1665C21.6831 31.0635 21.0417 31.9605 20.3614 32.8575L17.3874 37.3035C17.135 37.8101 16.7609 38.2457 16.2989 38.571C15.9839 38.7612 15.6436 38.9057 15.2881 39H14.2774C13.9508 38.9113 13.6371 38.7802 13.3444 38.61C13.0223 38.407 12.7456 38.1393 12.5315 37.8239C12.3174 37.5085 12.1706 37.152 12.1004 36.777C12.0393 36.4884 12.0067 36.1945 12.0032 35.8995V15.6975C11.9719 14.7471 12.1721 13.8033 12.5863 12.948C12.9332 12.1959 13.5514 11.6036 14.3163 11.2905C14.4898 11.2046 14.6425 11.0814 14.7634 10.9298C14.8843 10.7782 14.9705 10.6017 15.016 10.413C15.1753 10.0015 15.2672 9.56691 15.2881 9.126V1.014C15.2683 0.809883 15.3095 0.604469 15.4064 0.423901C15.5033 0.243332 15.6516 0.0957723 15.8324 0L16.4544 0C16.7071 0.1365 16.9598 0.234 17.0375 0.5655V9.1455C17.056 10.1252 16.7855 11.0885 16.26 11.9145C15.9609 12.3686 15.5443 12.7326 15.0549 12.9675C14.7504 13.1352 14.4852 13.3664 14.2773 13.6456C14.0694 13.9248 13.9236 14.2455 13.8498 14.586C13.746 15.0001 13.7002 15.4267 13.7137 15.8535V35.9385C13.7185 36.0854 13.7529 36.2298 13.8147 36.3631C13.8765 36.4963 13.9645 36.6157 14.0734 36.714C14.1823 36.8123 14.3099 36.8876 14.4485 36.9353C14.5871 36.983 14.7338 37.0021 14.8799 36.9915H15.1326C15.4023 36.8571 15.6207 36.638 15.7546 36.3675C15.949 36.0945 16.124 35.802 16.2989 35.529L17.3485 34.0275L20.6529 29.1525C21.0044 28.5049 21.504 27.9502 22.1108 27.534C22.7266 27.1736 23.4539 27.0555 24.1517 27.2025C24.9621 27.4344 25.76 27.7078 26.5425 28.0215L31.3242 29.679L33.9677 30.5955C34.1161 30.6448 34.276 30.647 34.4257 30.6016C34.5753 30.5562 34.7073 30.4655 34.8035 30.342C34.9134 30.2237 34.9908 30.0789 35.0282 29.9218C35.0657 29.7646 35.0619 29.6003 35.0174 29.445C34.8632 29.0958 34.6457 28.7784 34.3759 28.509C33.4235 27.2415 32.4321 25.9935 31.4797 24.726C30.5273 23.4585 29.983 22.776 29.1861 21.7425C28.8539 21.3882 28.6019 20.966 28.4476 20.5049C28.2933 20.0438 28.2402 19.5546 28.2919 19.071C28.3327 18.675 28.4659 18.2942 28.6807 17.9595C29.1861 17.2185 29.7498 16.5165 30.294 15.795C30.8383 15.0735 31.7713 13.845 32.5099 12.831L34.823 9.75C34.8848 9.68173 34.9321 9.60161 34.9622 9.51447C34.9923 9.42733 35.0044 9.33498 34.9979 9.243C34.9981 8.99103 34.9011 8.74877 34.7271 8.567C34.5532 8.38523 34.3159 8.27808 34.0649 8.268C33.9557 8.24785 33.8437 8.24785 33.7345 8.268L31.0132 9.243C29.0694 9.9645 26.9507 10.6665 24.9292 11.4075C24.2641 11.7018 23.5301 11.8031 22.8105 11.7C22.1538 11.627 21.5493 11.3064 21.1194 10.803C20.3614 9.7695 19.6616 8.697 18.923 7.644C18.8304 7.42526 18.7059 7.22153 18.5537 7.0395Z" fill="#2B2B2B"/>
<path d="M7.14374 0C7.32487 0.0960707 7.47344 0.24409 7.57055 0.425222C7.66766 0.606353 7.70891 0.812406 7.68907 1.01716V9.03708C7.67742 9.62356 7.79723 10.2052 8.03964 10.7389C8.19354 11.0672 8.46463 11.3255 8.79921 11.4626C9.4053 11.7527 9.91322 12.2153 10.2599 12.7927C10.6691 13.4428 10.9224 14.1793 11 14.9444C11 15.3356 11 15.7464 11 16.1376V38.1435C11.0005 38.3568 10.9203 38.5623 10.7757 38.7184C10.6311 38.8746 10.4328 38.9697 10.221 38.9846C10.125 39.0045 10.0261 39.0051 9.92987 38.9863C9.83368 38.9675 9.74217 38.9298 9.66064 38.8752C9.57911 38.8206 9.50918 38.7503 9.45492 38.6683C9.40066 38.5864 9.36314 38.4944 9.34454 38.3978C9.32538 38.3141 9.32538 38.2272 9.34454 38.1435V15.6486C9.33971 14.9539 9.13696 14.2752 8.76025 13.6925C8.62371 13.4193 8.4148 13.1892 8.1565 13.0275C7.67166 12.7956 7.24491 12.4572 6.9078 12.0374C6.57069 11.6175 6.33183 11.127 6.20889 10.6019C6.09504 10.1539 6.02974 9.69482 6.01413 9.23268V1.0954C5.97872 0.88065 6.01023 0.660152 6.10436 0.464074C6.19849 0.267996 6.35064 0.105914 6.53999 0L7.14374 0Z" fill="#2B2B2B"/>
<path d="M7 21.7284V23.8584C7 24.0177 7 24.0177 6.83551 23.9779L3.91123 22.9626C3.21671 22.7437 2.50392 22.5645 1.82768 22.3057C1.36218 22.1572 0.944207 21.8697 0.62116 21.4756C0.298113 21.0815 0.0829232 20.5967 0 20.0762L0 18.8221C0.0847885 18.4692 0.22051 18.1332 0.402089 17.8267C0.773397 17.2317 1.33296 16.8065 1.97389 16.6323C2.75979 16.3935 3.52742 16.1148 4.29504 15.856L6.98172 15V16.9907L5.26371 17.568L2.52219 18.4637C2.30438 18.5293 2.11819 18.6839 2.00242 18.8953C1.88666 19.1066 1.85025 19.3585 1.90078 19.5984C1.93882 19.7617 2.01663 19.9108 2.12601 20.0299C2.23538 20.1491 2.37226 20.2338 2.52219 20.2753C3.74674 20.6734 4.97128 21.0715 6.17755 21.4298C6.43754 21.5707 6.71438 21.6713 7 21.7284Z" fill="#2B2B2B"/>
<path d="M6.98209 22C6.71752 21.9647 6.45835 21.8856 6.21208 21.765C4.99438 21.3803 3.79459 20.953 2.63062 20.5256C2.4172 20.4553 2.23478 20.2894 2.12135 20.0625C2.00793 19.8356 1.97226 19.5652 2.02177 19.3077C2.05904 19.1324 2.13528 18.9724 2.24244 18.8445C2.34961 18.7166 2.48372 18.6257 2.63062 18.5812L5.31671 17.6197L7 17L6.98209 22Z" fill="#D61516"/>
<path d="M13.8885 5.02387V9.16519C13.8976 9.2653 13.8841 9.366 13.8489 9.4615C13.8137 9.55701 13.7575 9.64543 13.6834 9.72168C13.6094 9.79792 13.519 9.8605 13.4174 9.9058C13.3159 9.9511 13.2052 9.97824 13.0917 9.98565C12.8511 10.0259 12.6023 9.98075 12.3993 9.86006C12.1962 9.73936 12.0553 9.55285 12.0071 9.34101V0.980224C11.9758 0.749826 12.049 0.517846 12.2107 0.334875C12.3724 0.151904 12.6095 0.0327849 12.8703 0.00349688C13.1228 -0.0160022 13.3747 0.0465145 13.5786 0.179308C13.7118 0.244558 13.8217 0.341279 13.8959 0.458605C13.9702 0.575931 14.006 0.709214 13.9992 0.843482L13.8885 5.02387Z" fill="#2B2B2B"/>
<path d="M10.8885 5.02387V9.16519C10.8976 9.2653 10.8841 9.366 10.8489 9.4615C10.8137 9.55701 10.7575 9.64543 10.6834 9.72168C10.6094 9.79792 10.519 9.8605 10.4174 9.9058C10.3159 9.9511 10.2052 9.97824 10.0917 9.98565C9.85114 10.0259 9.60232 9.98075 9.39926 9.86006C9.19619 9.73936 9.05527 9.55285 9.00709 9.34101V0.980224C8.97578 0.749826 9.04895 0.517846 9.21066 0.334875C9.37238 0.151904 9.6095 0.0327849 9.87033 0.00349688C10.1228 -0.0160022 10.3747 0.0465145 10.5786 0.179308C10.7118 0.244558 10.8217 0.341279 10.8959 0.458605C10.9702 0.575931 11.006 0.709214 10.9992 0.843482L10.8885 5.02387Z" fill="#2B2B2B"/>
<path d="M18.3329 6C18.5156 6.17914 18.6681 6.38727 18.7845 6.61618C19.5306 7.68951 20.2375 8.78273 21.0032 9.83619C21.4196 10.3372 21.9962 10.6747 22.6328 10.7903C23.3834 10.9171 24.1542 10.8204 24.8515 10.512C26.8149 9.75668 28.9551 9.04112 30.9971 8.30569L33.7459 7.31186C33.9855 7.22913 34.2476 7.24533 34.4755 7.35696C34.7033 7.46858 34.8786 7.66662 34.9632 7.90816C34.9819 8.02 34.9819 8.13422 34.9632 8.24606C34.9697 8.33982 34.9575 8.43395 34.9271 8.52277C34.8967 8.61159 34.8489 8.69326 34.7865 8.76285L32.4304 11.8636C31.6843 12.8773 30.9185 13.8513 30.192 14.8849C29.4656 15.9184 29.0729 16.3358 28.5624 17.0912C28.3454 17.4324 28.2109 17.8205 28.1697 18.2241C28.1174 18.7171 28.1711 19.2157 28.327 19.6857C28.4829 20.1557 28.7373 20.5861 29.0729 20.9472C29.8779 21.9411 30.624 22.9349 31.3897 23.9883C32.1555 25.0418 33.3532 26.5524 34.3153 27.8444C34.5878 28.119 34.8075 28.4426 34.9632 28.7985C35.0082 28.9568 35.012 29.1242 34.9742 29.2845C34.9363 29.4447 34.8581 29.5923 34.7472 29.7128C34.65 29.8388 34.5166 29.9312 34.3655 29.9774C34.2144 30.0237 34.0528 30.0215 33.9029 29.9712L31.2327 29.037L26.4026 27.3475C25.6122 27.0277 24.8062 26.7491 23.9876 26.5127C23.2828 26.3628 22.5481 26.4832 21.926 26.8506C21.3131 27.2748 20.8085 27.8402 20.4534 28.5003L17.1156 33.4695L16.0553 35H15.8001C15.2896 35 15.1522 34.7615 15.0147 34.3441C14.9951 34.1325 14.9951 33.9196 15.0147 33.708V14.7258C15.0353 14.3078 15.1495 13.9001 15.3485 13.5332C15.4322 13.4157 15.5483 13.3258 15.6823 13.2748C16.2945 12.9023 16.8201 12.4005 17.2233 11.8037C17.6265 11.2068 17.8978 10.529 18.0188 9.81631C18.1627 9.23688 18.2482 8.64418 18.274 8.04729C18.3329 7.35161 18.274 6.77519 18.3329 6Z" fill="#D61516"/>
</svg>
